<svg xmlns="http://www.w3.org/2000/svg" width="1600" height="900" viewBox="0 0 1600 900" fill="none">
  <rect width="1600" height="900" fill="#3B2417"/>
  <circle cx="1180" cy="360" r="260" fill="#B98545" opacity="0.24"/>
  <circle cx="1320" cy="560" r="340" fill="#1E1A17" opacity="0.55"/>
  <g opacity="0.45">
    <ellipse cx="1120" cy="430" rx="90" ry="130" transform="rotate(32 1120 430)" fill="#8B5A37"/>
    <path d="M1065 350c65 52 88 142 57 230" stroke="#3B2417" stroke-width="16" stroke-linecap="round"/>
    <ellipse cx="1280" cy="330" rx="82" ry="122" transform="rotate(-24 1280 330)" fill="#A66A3F"/>
    <path d="M1328 250c-55 60-67 147-24 223" stroke="#3B2417" stroke-width="16" stroke-linecap="round"/>
    <ellipse cx="1328" cy="612" rx="96" ry="137" transform="rotate(18 1328 612)" fill="#6B4228"/>
    <path d="M1276 516c66 68 76 160 26 246" stroke="#3B2417" stroke-width="16" stroke-linecap="round"/>
  </g>
  <path d="M0 720C250 650 410 760 655 692c260-72 415-242 945-195v403H0V720z" fill="#1E1A17" opacity="0.5"/>
</svg>
